<svg width="21" height="22" viewBox="0 0 21 22" fill="none" xmlns="http://www.w3.org/2000/svg">
<path d="M4.23077 5.92308C4.23077 7.49397 4.85481 9.00053 5.9656 10.1113C7.07639 11.2221 8.58295 11.8462 10.1538 11.8462C11.7247 11.8462 13.2313 11.2221 14.3421 10.1113C15.4529 9.00053 16.0769 7.49397 16.0769 5.92308C16.0769 4.35218 15.4529 2.84562 14.3421 1.73483C13.2313 0.624037 11.7247 0 10.1538 0C8.58295 0 7.07639 0.624037 5.9656 1.73483C4.85481 2.84562 4.23077 4.35218 4.23077 5.92308ZM18.6154 22H0.846154C0.62174 22 0.406517 21.9109 0.247833 21.7522C0.0891483 21.5935 0 21.3783 0 21.1538V18.6154C0 17.4933 0.44574 16.4172 1.23916 15.6238C2.03259 14.8304 3.1087 14.3846 4.23077 14.3846H16.0769C17.199 14.3846 18.2751 14.8304 19.0685 15.6238C19.8619 16.4172 20.3077 17.4933 20.3077 18.6154V21.1538C20.3077 21.3783 20.2185 21.5935 20.0599 21.7522C19.9012 21.9109 19.686 22 19.4615 22H18.6154Z" fill="#808080"/>
</svg>
