<svg width="153" height="129" viewBox="0 0 153 129" fill="none" xmlns="http://www.w3.org/2000/svg">
<path d="M2.02273 97.0918H8.09091L14.5 112.728H14.7727L21.1818 97.0918H27.25V120.365H22.4773V105.217H22.2841L16.2614 120.251H13.0114L6.98864 105.16H6.79545V120.365H2.02273V97.0918ZM34.2017 126.91C33.5881 126.91 33.0123 126.861 32.4744 126.762C31.9441 126.671 31.5047 126.554 31.1562 126.41L32.2472 122.796C32.8153 122.971 33.3267 123.065 33.7812 123.08C34.2434 123.096 34.6411 122.99 34.9744 122.762C35.3153 122.535 35.5919 122.149 35.804 121.603L36.0881 120.865L29.8267 102.91H34.9176L38.5312 115.728H38.7131L42.3608 102.91H47.4858L40.7017 122.251C40.3759 123.19 39.9328 124.008 39.3722 124.705C38.8191 125.41 38.1184 125.952 37.2699 126.33C36.4214 126.717 35.3987 126.91 34.2017 126.91ZM50.3267 97.0918H55.4858L62.3949 113.955H62.6676L69.5767 97.0918H74.7358V120.365H70.6903V104.376H70.4744L64.0426 120.296H61.0199L54.5881 104.342H54.3722V120.365H50.3267V97.0918ZM86.7585 120.705C85.054 120.705 83.5767 120.33 82.3267 119.58C81.0767 118.83 80.107 117.781 79.4176 116.433C78.7358 115.084 78.3949 113.508 78.3949 111.705C78.3949 109.902 78.7358 108.323 79.4176 106.967C80.107 105.611 81.0767 104.558 82.3267 103.808C83.5767 103.058 85.054 102.683 86.7585 102.683C88.4631 102.683 89.9403 103.058 91.1903 103.808C92.4403 104.558 93.4063 105.611 94.0881 106.967C94.7775 108.323 95.1222 109.902 95.1222 111.705C95.1222 113.508 94.7775 115.084 94.0881 116.433C93.4063 117.781 92.4403 118.83 91.1903 119.58C89.9403 120.33 88.4631 120.705 86.7585 120.705ZM86.7812 117.41C87.7055 117.41 88.4782 117.156 89.0994 116.649C89.7206 116.133 90.1828 115.444 90.4858 114.58C90.7964 113.717 90.9517 112.755 90.9517 111.694C90.9517 110.626 90.7964 109.66 90.4858 108.796C90.1828 107.925 89.7206 107.232 89.0994 106.717C88.4782 106.202 87.7055 105.944 86.7812 105.944C85.8343 105.944 85.0464 106.202 84.4176 106.717C83.7964 107.232 83.3305 107.925 83.0199 108.796C82.7169 109.66 82.5653 110.626 82.5653 111.694C82.5653 112.755 82.7169 113.717 83.0199 114.58C83.3305 115.444 83.7964 116.133 84.4176 116.649C85.0464 117.156 85.8343 117.41 86.7812 117.41ZM102.727 110.137V120.365H98.6136V102.91H102.545V105.876H102.75C103.152 104.899 103.792 104.122 104.67 103.546C105.557 102.971 106.652 102.683 107.955 102.683C109.159 102.683 110.208 102.94 111.102 103.455C112.004 103.971 112.701 104.717 113.193 105.694C113.693 106.671 113.939 107.857 113.932 109.251V120.365H109.818V109.887C109.818 108.721 109.515 107.808 108.909 107.149C108.311 106.49 107.481 106.16 106.42 106.16C105.701 106.16 105.061 106.319 104.5 106.637C103.947 106.948 103.511 107.399 103.193 107.99C102.883 108.58 102.727 109.296 102.727 110.137ZM125.841 120.705C124.091 120.705 122.58 120.342 121.307 119.615C120.042 118.88 119.068 117.842 118.386 116.501C117.705 115.152 117.364 113.565 117.364 111.74C117.364 109.944 117.705 108.368 118.386 107.012C119.076 105.649 120.038 104.588 121.273 103.83C122.508 103.065 123.958 102.683 125.625 102.683C126.701 102.683 127.716 102.857 128.67 103.205C129.633 103.546 130.481 104.077 131.216 104.796C131.958 105.516 132.542 106.433 132.966 107.546C133.39 108.652 133.602 109.971 133.602 111.501V112.762H119.295V109.99H129.659C129.652 109.202 129.481 108.501 129.148 107.887C128.814 107.266 128.348 106.777 127.75 106.421C127.159 106.065 126.47 105.887 125.682 105.887C124.841 105.887 124.102 106.092 123.466 106.501C122.83 106.902 122.333 107.433 121.977 108.092C121.629 108.743 121.451 109.459 121.443 110.24V112.66C121.443 113.675 121.629 114.546 122 115.274C122.371 115.993 122.89 116.546 123.557 116.933C124.223 117.311 125.004 117.501 125.898 117.501C126.496 117.501 127.038 117.418 127.523 117.251C128.008 117.077 128.428 116.823 128.784 116.49C129.14 116.156 129.409 115.743 129.591 115.251L133.432 115.683C133.189 116.698 132.727 117.584 132.045 118.342C131.371 119.092 130.508 119.675 129.455 120.092C128.402 120.501 127.197 120.705 125.841 120.705ZM139.139 126.91C138.579 126.91 138.06 126.865 137.582 126.774C137.113 126.69 136.738 126.592 136.457 126.478L137.412 123.274C138.01 123.448 138.545 123.531 139.014 123.524C139.484 123.516 139.897 123.368 140.253 123.08C140.616 122.8 140.923 122.33 141.173 121.671L141.526 120.728L135.196 102.91H139.56L143.582 116.092H143.764L147.798 102.91H152.173L145.185 122.478C144.859 123.402 144.427 124.194 143.889 124.853C143.351 125.52 142.692 126.027 141.912 126.376C141.139 126.732 140.215 126.91 139.139 126.91Z" fill="white"/>
<path fill-rule="evenodd" clip-rule="evenodd" d="M43.8122 11.6195C43.8122 11.0031 44.057 10.412 44.4928 9.97622C44.9286 9.54041 45.5197 9.29557 46.1361 9.29557H94.9378C96.1705 9.29557 97.3527 8.80589 98.2243 7.93426C99.0959 7.06264 99.5856 5.88045 99.5856 4.64779C99.5856 3.41512 99.0959 2.23293 98.2243 1.36131C97.3527 0.489677 96.1705 0 94.9378 0H46.1361C43.0544 0 40.0989 1.22419 37.9199 3.40326C35.7408 5.58233 34.5166 8.53779 34.5166 11.6195V65.069C34.5166 67.5343 35.496 69.8987 37.2392 71.642C38.9825 73.3852 41.3468 74.3646 43.8122 74.3646H108.881C111.347 74.3646 113.711 73.3852 115.454 71.642C117.197 69.8987 118.177 67.5343 118.177 65.069V23.2389C118.177 20.7736 117.197 18.4092 115.454 16.666C113.711 14.9227 111.347 13.9434 108.881 13.9434H46.1361C45.5197 13.9434 44.9286 13.6985 44.4928 13.2627C44.057 12.8269 43.8122 12.2358 43.8122 11.6195ZM92.6139 51.1256C94.4629 51.1256 96.2362 50.3911 97.5436 49.0837C98.8511 47.7762 99.5856 46.003 99.5856 44.154C99.5856 42.305 98.8511 40.5317 97.5436 39.2242C96.2362 37.9168 94.4629 37.1823 92.6139 37.1823C90.7649 37.1823 88.9916 37.9168 87.6842 39.2242C86.3768 40.5317 85.6422 42.305 85.6422 44.154C85.6422 46.003 86.3768 47.7762 87.6842 49.0837C88.9916 50.3911 90.7649 51.1256 92.6139 51.1256Z" fill="white"/>
</svg>
