<svg width="22" height="18" viewBox="0 0 22 18" fill="none" xmlns="http://www.w3.org/2000/svg">
<path d="M18.5832 0.333336H3.4165C2.55455 0.333336 1.7279 0.675746 1.11841 1.28524C0.508914 1.89473 0.166504 2.72138 0.166504 3.58334V14.4167C0.166504 15.2786 0.508914 16.1053 1.11841 16.7148C1.7279 17.3243 2.55455 17.6667 3.4165 17.6667H18.5832C19.4451 17.6667 20.2718 17.3243 20.8813 16.7148C21.4908 16.1053 21.8332 15.2786 21.8332 14.4167V3.58334C21.8332 2.72138 21.4908 1.89473 20.8813 1.28524C20.2718 0.675746 19.4451 0.333336 18.5832 0.333336ZM18.5832 2.5L11.5415 7.3425C11.3768 7.43759 11.19 7.48764 10.9998 7.48764C10.8097 7.48764 10.6229 7.43759 10.4582 7.3425L3.4165 2.5H18.5832Z" fill="#808080"/>
</svg>
