<svg width="12" height="12" viewBox="0 0 12 12" fill="none" xmlns="http://www.w3.org/2000/svg">
<path d="M5.9998 8.69999C4.4998 8.69999 3.2998 7.49999 3.2998 5.99999C3.2998 4.49999 4.4998 3.29999 5.9998 3.29999C7.4998 3.29999 8.6998 4.49999 8.6998 5.99999C8.6998 7.49999 7.4998 8.69999 5.9998 8.69999ZM5.9998 3.89999C4.8298 3.89999 3.8998 4.82999 3.8998 5.99999C3.8998 7.16999 4.8298 8.09999 5.9998 8.09999C7.1698 8.09999 8.0998 7.16999 8.0998 5.99999C8.0998 4.82999 7.1698 3.89999 5.9998 3.89999Z" fill="#595959"/>
<path d="M6.80981 11.7H5.1898L4.7398 10.32C4.4398 10.23 4.1398 10.11 3.8698 9.95999L2.5498 10.62L1.4098 9.47999L2.0698 8.15999C1.9198 7.88999 1.7998 7.58999 1.7098 7.28999L0.299805 6.80999V5.18999L1.6798 4.73999C1.7698 4.43999 1.8898 4.13999 2.0398 3.86999L1.3798 2.54999L2.5198 1.40999L3.8398 2.06999C4.1098 1.91999 4.40981 1.79999 4.70981 1.70999L5.1898 0.299988H6.80981L7.25981 1.67999C7.55981 1.76999 7.8598 1.88999 8.1298 2.03999L9.44981 1.37999L10.5898 2.51999L9.9298 3.83999C10.0798 4.10999 10.1998 4.40999 10.2898 4.70999L11.6698 5.15999V6.77999L10.2898 7.22999C10.1998 7.52999 10.0798 7.82999 9.9298 8.09999L10.5898 9.41999L9.44981 10.56L8.1298 9.89999C7.8598 10.05 7.55981 10.17 7.25981 10.26L6.80981 11.7ZM5.60981 11.1H6.3898L6.80981 9.80999L6.95981 9.77999C7.31981 9.68999 7.64981 9.53999 7.9798 9.35999L8.1298 9.26999L9.3298 9.86999L9.86981 9.32999L9.26981 8.12999L9.35981 7.97999C9.53981 7.67999 9.68981 7.31999 9.7798 6.95999L9.8098 6.80999L11.0998 6.38999V5.60999L9.8098 5.18999L9.7798 5.03999C9.68981 4.67999 9.53981 4.34999 9.35981 4.01999L9.26981 3.86999L9.86981 2.66999L9.3298 2.12999L8.1298 2.72999L7.9798 2.63999C7.64981 2.45999 7.31981 2.30999 6.95981 2.21999L6.80981 2.18999L6.3898 0.899988H5.60981L5.1898 2.18999L5.0398 2.21999C4.6798 2.30999 4.3498 2.45999 4.0198 2.63999L3.8698 2.72999L2.6698 2.12999L2.1298 2.66999L2.7298 3.86999L2.6398 4.01999C2.4598 4.31999 2.3098 4.67999 2.2198 5.03999L2.1898 5.18999L0.899805 5.60999V6.38999L2.1898 6.80999L2.2198 6.95999C2.3098 7.31999 2.4598 7.64999 2.6398 7.97999L2.7298 8.12999L2.1298 9.32999L2.6698 9.86999L3.8698 9.26999L4.0198 9.35999C4.3498 9.53999 4.6798 9.68999 5.0398 9.77999L5.1898 9.80999L5.60981 11.1Z" fill="#595959"/>
</svg>
