<svg width="25" height="24" viewBox="0 0 25 24" fill="none" xmlns="http://www.w3.org/2000/svg">
<path d="M12.3646 1.5C6.47806 1.5 1.70508 6.20156 1.70508 12C1.70508 17.7984 6.47806 22.5 12.3646 22.5C18.2511 22.5 23.0241 17.7984 23.0241 12C23.0241 6.20156 18.2511 1.5 12.3646 1.5ZM13.126 17.0625C13.126 17.1656 13.0403 17.25 12.9356 17.25H11.7935C11.6888 17.25 11.6032 17.1656 11.6032 17.0625V10.6875C11.6032 10.5844 11.6888 10.5 11.7935 10.5H12.9356C13.0403 10.5 13.126 10.5844 13.126 10.6875V17.0625ZM12.3646 9C12.0657 8.99399 11.7811 8.87282 11.5719 8.6625C11.3627 8.45218 11.2456 8.16945 11.2456 7.875C11.2456 7.58055 11.3627 7.29782 11.5719 7.0875C11.7811 6.87718 12.0657 6.75601 12.3646 6.75C12.6634 6.75601 12.948 6.87718 13.1572 7.0875C13.3664 7.29782 13.4836 7.58055 13.4836 7.875C13.4836 8.16945 13.3664 8.45218 13.1572 8.6625C12.948 8.87282 12.6634 8.99399 12.3646 9Z" fill="#00B172"/>
</svg>
