<svg width="29" height="26" viewBox="0 0 29 26" fill="none" xmlns="http://www.w3.org/2000/svg">
<path d="M13.8969 16.7058C14.8508 16.7058 15.7656 16.3269 16.4401 15.6524C17.1145 14.9779 17.4935 14.0631 17.4935 13.1093C17.4935 13.0039 17.4886 12.8996 17.4796 12.7965L13.5842 16.692C13.6872 16.701 13.7913 16.7058 13.8969 16.7058ZM25.8015 1.98442L24.4296 0.613879C24.3815 0.565739 24.3161 0.538696 24.248 0.538696C24.1799 0.538696 24.1146 0.565739 24.0664 0.613879L20.556 4.12532C18.6194 3.13563 16.4425 2.64078 14.0254 2.64078C7.85346 2.64078 3.24861 5.85519 0.210822 12.284C0.0887174 12.5425 0.0253906 12.8249 0.0253906 13.1109C0.0253906 13.3968 0.0887174 13.6792 0.210822 13.9378C1.42465 16.4945 2.88628 18.5438 4.5957 20.0856L1.19858 23.4814C1.15044 23.5296 1.1234 23.5949 1.1234 23.663C1.1234 23.7311 1.15044 23.7964 1.19858 23.8446L2.56944 25.2155C2.61761 25.2636 2.68293 25.2906 2.75103 25.2906C2.81914 25.2906 2.88446 25.2636 2.93263 25.2155L25.8015 2.34792C25.8253 2.32406 25.8443 2.29573 25.8572 2.26455C25.8701 2.23336 25.8768 2.19993 25.8768 2.16617C25.8768 2.13241 25.8701 2.09898 25.8572 2.06779C25.8443 2.03661 25.8253 2.00827 25.8015 1.98442ZM8.24522 13.1093C8.24513 12.1331 8.49789 11.1735 8.97888 10.3241C9.45986 9.47459 10.1527 8.7642 10.9898 8.26207C11.8269 7.75994 12.7799 7.4832 13.7557 7.45882C14.7316 7.43444 15.6972 7.66324 16.5584 8.12293L14.9971 9.68421C14.3674 9.4826 13.6944 9.45832 13.0519 9.61403C12.4093 9.76975 11.8221 10.0994 11.3546 10.5669C10.8871 11.0344 10.5574 11.6217 10.4017 12.2642C10.246 12.9068 10.2703 13.5798 10.4719 14.2094L8.91058 15.7707C8.47245 14.9521 8.24386 14.0377 8.24522 13.1093V13.1093Z" fill="#808080"/>
<path d="M27.8398 12.2808C26.7095 9.90021 25.3641 7.95904 23.8037 6.45728L19.175 11.0862C19.5652 12.1061 19.6517 13.2172 19.424 14.2852C19.1964 15.3532 18.6643 16.3325 17.8922 17.1046C17.12 17.8768 16.1408 18.4088 15.0728 18.6365C14.0048 18.8641 12.8937 18.7777 11.8738 18.3875L7.94775 22.3135C9.76914 23.1563 11.795 23.5777 14.0253 23.5777C20.1972 23.5777 24.802 20.3633 27.8398 13.9345C27.9619 13.676 28.0253 13.3936 28.0253 13.1077C28.0253 12.8217 27.9619 12.5393 27.8398 12.2808V12.2808Z" fill="#808080"/>
</svg>
