<svg width="15" height="16" viewBox="0 0 15 16" fill="none" xmlns="http://www.w3.org/2000/svg">
<g clip-path="url(#clip0_46_119)">
<path d="M13.8242 0.999822H10.0172L9.71903 0.415447C9.65586 0.290514 9.55855 0.185423 9.43805 0.111997C9.31755 0.0385706 9.17864 -0.000277729 9.03695 -0.000177626H5.41082C5.26945 -0.000712956 5.13078 0.0379905 5.01071 0.111498C4.89064 0.185006 4.79401 0.290346 4.73191 0.415447L4.4337 0.999822H0.626736C0.492113 0.999822 0.363004 1.0525 0.267812 1.14627C0.172619 1.24004 0.119141 1.36721 0.119141 1.49982L0.119141 2.49982C0.119141 2.63243 0.172619 2.75961 0.267812 2.85338C0.363004 2.94714 0.492113 2.99982 0.626736 2.99982H13.8242C13.9588 2.99982 14.0879 2.94714 14.1831 2.85338C14.2783 2.75961 14.3318 2.63243 14.3318 2.49982V1.49982C14.3318 1.36721 14.2783 1.24004 14.1831 1.14627C14.0879 1.0525 13.9588 0.999822 13.8242 0.999822ZM1.80689 14.5936C1.8311 14.9744 2.00173 15.3318 2.28405 15.5931C2.56637 15.8543 2.93915 15.9998 3.32651 15.9998H11.1244C11.5118 15.9998 11.8846 15.8543 12.1669 15.5931C12.4492 15.3318 12.6198 14.9744 12.644 14.5936L13.3166 3.99982H1.13433L1.80689 14.5936Z" fill="#656262"/>
</g>
<defs>
<clipPath id="clip0_46_119">
<rect width="14.2127" height="16" fill="white" transform="translate(0.119141)"/>
</clipPath>
</defs>
</svg>
