<svg width="24" height="18" viewBox="0 0 24 18" fill="none" xmlns="http://www.w3.org/2000/svg">
<path d="M8.82792 9C8.82792 9.81223 9.15057 10.5912 9.7249 11.1655C10.2992 11.7398 11.0782 12.0625 11.8904 12.0625C12.7026 12.0625 13.4816 11.7398 14.0559 11.1655C14.6303 10.5912 14.9529 9.81223 14.9529 9C14.9529 8.18777 14.6303 7.40882 14.0559 6.83449C13.4816 6.26016 12.7026 5.9375 11.8904 5.9375C11.0782 5.9375 10.2992 6.26016 9.7249 6.83449C9.15057 7.40882 8.82792 8.18777 8.82792 9ZM23.7631 8.29453C21.1709 2.83398 17.2525 0.0859375 11.9998 0.0859375C6.74432 0.0859375 2.8287 2.83398 0.236511 8.29727C0.132537 8.51743 0.0786133 8.75789 0.0786133 9.00137C0.0786133 9.24485 0.132537 9.4853 0.236511 9.70547C2.8287 15.166 6.74706 17.9141 11.9998 17.9141C17.2553 17.9141 21.1709 15.166 23.7631 9.70273C23.9736 9.25977 23.9736 8.7457 23.7631 8.29453ZM11.8904 13.8125C9.2326 13.8125 7.07792 11.6578 7.07792 9C7.07792 6.34219 9.2326 4.1875 11.8904 4.1875C14.5482 4.1875 16.7029 6.34219 16.7029 9C16.7029 11.6578 14.5482 13.8125 11.8904 13.8125Z" fill="#808080"/>
</svg>
