<svg width="133" height="48" viewBox="0 0 133 48" fill="none" xmlns="http://www.w3.org/2000/svg">
<path fill-rule="evenodd" clip-rule="evenodd" d="M5.75 8.1875C5.75 7.80625 5.90145 7.44062 6.17103 7.17103C6.44062 6.90145 6.80625 6.75 7.1875 6.75H37.375C38.1375 6.75 38.8688 6.4471 39.4079 5.90793C39.9471 5.36876 40.25 4.6375 40.25 3.875C40.25 3.1125 39.9471 2.38124 39.4079 1.84207C38.8688 1.3029 38.1375 1 37.375 1H7.1875C5.28126 1 3.45309 1.75725 2.10517 3.10517C0.757252 4.45309 0 6.28126 0 8.1875V41.25C0 42.775 0.605802 44.2375 1.68414 45.3159C2.76247 46.3942 4.22501 47 5.75 47H46C47.525 47 48.9875 46.3942 50.0659 45.3159C51.1442 44.2375 51.75 42.775 51.75 41.25V15.375C51.75 13.85 51.1442 12.3875 50.0659 11.3091C48.9875 10.2308 47.525 9.625 46 9.625H7.1875C6.80625 9.625 6.44062 9.47355 6.17103 9.20397C5.90145 8.93438 5.75 8.56875 5.75 8.1875ZM35.9375 32.625C37.0812 32.625 38.1781 32.1706 38.9869 31.3619C39.7956 30.5531 40.25 29.4562 40.25 28.3125C40.25 27.1688 39.7956 26.0719 38.9869 25.2631C38.1781 24.4544 37.0812 24 35.9375 24C34.7938 24 33.6969 24.4544 32.8881 25.2631C32.0793 26.0719 31.625 27.1688 31.625 28.3125C31.625 29.4562 32.0793 30.5531 32.8881 31.3619C33.6969 32.1706 34.7938 32.625 35.9375 32.625Z" fill="white"/>
<path d="M67.2642 4.45455H71.0568L75.0625 14.2273H75.233L79.2386 4.45455H83.0312V19H80.0483V9.53267H79.9276L76.1634 18.929H74.1321L70.3679 9.49716H70.2472V19H67.2642V4.45455ZM87.3761 23.0909C86.9925 23.0909 86.6327 23.0601 86.2965 22.9986C85.9651 22.9418 85.6905 22.8684 85.4727 22.7784L86.1545 20.5199C86.5096 20.6288 86.8292 20.688 87.1133 20.6974C87.4021 20.7069 87.6507 20.6406 87.859 20.4986C88.0721 20.3565 88.2449 20.1151 88.3775 19.7741L88.555 19.3125L84.6417 8.09091H87.8235L90.082 16.1023H90.1957L92.4755 8.09091H95.6786L91.4386 20.179C91.235 20.7661 90.958 21.2775 90.6076 21.7131C90.262 22.1534 89.824 22.492 89.2937 22.7287C88.7634 22.9702 88.1242 23.0909 87.3761 23.0909ZM67.2642 28.4545H71.0568L75.0625 38.2273H75.233L79.2386 28.4545H83.0312V43H80.0483V33.5327H79.9276L76.1634 42.929H74.1321L70.3679 33.4972H70.2472V43H67.2642V28.4545ZM90.4371 43.2131C89.3339 43.2131 88.3799 42.9787 87.5749 42.5099C86.7747 42.0365 86.1568 41.3783 85.7212 40.5355C85.2856 39.688 85.0678 38.7055 85.0678 37.5881C85.0678 36.4612 85.2856 35.4763 85.7212 34.6335C86.1568 33.786 86.7747 33.1278 87.5749 32.6591C88.3799 32.1856 89.3339 31.9489 90.4371 31.9489C91.5404 31.9489 92.4921 32.1856 93.2923 32.6591C94.0972 33.1278 94.7174 33.786 95.1531 34.6335C95.5887 35.4763 95.8065 36.4612 95.8065 37.5881C95.8065 38.7055 95.5887 39.688 95.1531 40.5355C94.7174 41.3783 94.0972 42.0365 93.2923 42.5099C92.4921 42.9787 91.5404 43.2131 90.4371 43.2131ZM90.4513 40.8693C90.9532 40.8693 91.3723 40.7273 91.7085 40.4432C92.0446 40.1544 92.2979 39.7614 92.4684 39.2642C92.6436 38.767 92.7312 38.2012 92.7312 37.5668C92.7312 36.9323 92.6436 36.3665 92.4684 35.8693C92.2979 35.3722 92.0446 34.9792 91.7085 34.6903C91.3723 34.4015 90.9532 34.2571 90.4513 34.2571C89.9447 34.2571 89.5186 34.4015 89.1729 34.6903C88.832 34.9792 88.574 35.3722 88.3988 35.8693C88.2283 36.3665 88.1431 36.9323 88.1431 37.5668C88.1431 38.2012 88.2283 38.767 88.3988 39.2642C88.574 39.7614 88.832 40.1544 89.1729 40.4432C89.5186 40.7273 89.9447 40.8693 90.4513 40.8693ZM100.799 36.6932V43H97.7738V32.0909H100.657V34.0156H100.785C101.027 33.3812 101.431 32.8793 102 32.5099C102.568 32.1359 103.257 31.9489 104.066 31.9489C104.824 31.9489 105.484 32.1146 106.048 32.446C106.611 32.7775 107.049 33.2509 107.362 33.8665C107.674 34.4773 107.831 35.2064 107.831 36.054V43H104.805V36.5938C104.81 35.9261 104.639 35.4053 104.294 35.0312C103.948 34.6525 103.472 34.4631 102.866 34.4631C102.459 34.4631 102.099 34.5507 101.787 34.7259C101.479 34.901 101.237 35.1567 101.062 35.4929C100.892 35.8243 100.804 36.2244 100.799 36.6932ZM115.187 43.2131C114.065 43.2131 113.099 42.9858 112.289 42.5312C111.484 42.072 110.864 41.4233 110.428 40.5852C109.993 39.7424 109.775 38.7457 109.775 37.5952C109.775 36.473 109.993 35.4882 110.428 34.6406C110.864 33.7931 111.477 33.1326 112.268 32.6591C113.063 32.1856 113.996 31.9489 115.066 31.9489C115.786 31.9489 116.456 32.0649 117.076 32.2969C117.701 32.5241 118.246 32.8674 118.71 33.3267C119.178 33.786 119.543 34.3636 119.803 35.0597C120.064 35.7509 120.194 36.5606 120.194 37.4886V38.3196H110.982V36.4446H117.346C117.346 36.009 117.251 35.6231 117.062 35.2869C116.872 34.9508 116.61 34.688 116.273 34.4986C115.942 34.3045 115.556 34.2074 115.116 34.2074C114.656 34.2074 114.249 34.3139 113.894 34.527C113.544 34.7353 113.269 35.017 113.07 35.3722C112.871 35.7225 112.77 36.1132 112.765 36.544V38.3267C112.765 38.8665 112.864 39.3329 113.063 39.7259C113.267 40.1188 113.553 40.4219 113.923 40.6349C114.292 40.848 114.73 40.9545 115.237 40.9545C115.573 40.9545 115.88 40.9072 116.16 40.8125C116.439 40.7178 116.678 40.5758 116.877 40.3864C117.076 40.197 117.228 39.965 117.332 39.6903L120.13 39.875C119.988 40.5473 119.697 41.1345 119.256 41.6364C118.821 42.1335 118.257 42.5218 117.566 42.8011C116.879 43.0758 116.086 43.2131 115.187 43.2131ZM123.743 47.0909C123.36 47.0909 123 47.0601 122.664 46.9986C122.332 46.9418 122.058 46.8684 121.84 46.7784L122.522 44.5199C122.877 44.6288 123.196 44.688 123.48 44.6974C123.769 44.7069 124.018 44.6406 124.226 44.4986C124.439 44.3565 124.612 44.1151 124.745 43.7741L124.922 43.3125L121.009 32.0909H124.191L126.449 40.1023H126.563L128.843 32.0909H132.046L127.806 44.179C127.602 44.7661 127.325 45.2775 126.975 45.7131C126.629 46.1534 126.191 46.492 125.661 46.7287C125.131 46.9702 124.491 47.0909 123.743 47.0909Z" fill="white"/>
</svg>
